<svg xmlns="http://www.w3.org/2000/svg" width="119" height="25" fill="none"><path fill="#fff" d="m6.248 23.904-5.376.144-.24-1.488 3.552-.432V4.32L.68 4.656.44 3.168l5.376-1.536 1.824-.144.288 4.08L14.984.864c1.568 0 2.816.144 3.744.432.928.288 1.632.752 2.112 1.392.512.64.832 1.472.96 2.496.16.992.24 2.208.24 3.648v13.296l3.888.432-.24 1.488-5.376-.144-4.368.144-.24-1.488 2.544-.432V8.208c0-1.344-.288-2.32-.864-2.928-.576-.64-1.424-.96-2.544-.96-.896 0-1.776.24-2.64.72a37.559 37.559 0 0 0-2.592 1.584L8.024 7.632v14.496l2.832.432-.24 1.488-4.368-.144zm40.397-6.096c0 1.088.047 1.888.143 2.4.097.48.225.912.385 1.296h2.544l.191 1.488-5.616 1.152-1.343-3.792-7.056 4.368c-1.633 0-2.928-.16-3.889-.48-.927-.32-1.647-.8-2.16-1.44-.512-.64-.848-1.456-1.008-2.448-.127-1.024-.191-2.224-.191-3.6V4.32l-3.6.24-.24-1.728 5.567-1.2 2.065-.192v16.08c0 1.344.288 2.304.864 2.88.575.576 1.471.864 2.688.864.832 0 1.744-.272 2.736-.816a52.632 52.632 0 0 0 3.072-1.872l1.008-.624V4.32l-3.024.24-.24-1.728 5.04-1.2 2.063-.192v16.368zm36.76 6.096-4.272.144-.24-1.488 2.592-.432V8.208c0-1.344-.272-2.32-.816-2.928-.512-.608-1.232-.912-2.16-.912-.736 0-1.568.224-2.496.672-.896.448-1.792.992-2.688 1.632L71.79 7.728v14.4l2.256.432-.24 1.488-3.744-.144-4.128.144-.24-1.488 2.304-.432V8.208c0-1.344-.272-2.32-.816-2.928-.512-.608-1.232-.912-2.16-.912-.736 0-1.568.224-2.496.672-.896.448-1.792.992-2.688 1.632l-1.584 1.056v14.4l2.592.432-.24 1.488-3.984-.144-5.52.144-.24-1.488 3.552-.432V4.32l-3.504.336-.24-1.488 5.472-1.536 1.824-.144.192 4.032L64.83.864c1.152 0 2.128.096 2.928.288.8.192 1.456.48 1.968.864s.912.88 1.2 1.488c.288.608.496 1.312.624 2.112L78.27.864c1.568 0 2.816.16 3.744.48.928.32 1.632.832 2.112 1.536.48.704.784 1.6.912 2.688.16 1.088.24 2.4.24 3.936v12.624l3.84.432-.24 1.488-5.472-.144zm18.896-11.328-7.632 3.168a2.786 2.786 0 0 0-.72 1.152c-.128.416-.192.88-.192 1.392 0 1.248.304 2.112.912 2.592.608.48 1.28.72 2.016.72s1.392-.16 1.968-.48c.576-.352 1.024-.64 1.344-.864l2.304-1.584v-6.096zM98.941.864c1.472 0 2.672.112 3.6.336.928.192 1.648.576 2.16 1.152.544.576.912 1.376 1.104 2.4.192.992.288 2.272.288 3.84V18c0 1.056.08 1.84.24 2.352.16.48.368.896.624 1.248h2.448l.144 1.488-5.52 1.056-1.44-3.648-5.808 4.224c-2.016 0-3.664-.528-4.944-1.584-1.28-1.056-1.92-2.544-1.92-4.464 0-.832.128-1.552.384-2.16.256-.64.64-1.344 1.152-2.112l10.848-3.648V8.448c0-.704-.032-1.344-.096-1.92-.032-.608-.144-1.12-.336-1.536a2.006 2.006 0 0 0-.912-1.008c-.384-.256-.928-.384-1.632-.384-.704 0-1.456.096-2.256.288-.768.192-1.44.4-2.016.624l-.864 3.456h-3.504v-3.36L98.94.864z"/><circle cx="115.5" cy="21.5" r="3.5" fill="#fff"/></svg>